<?xml version="1.0" standalone="no"?>
<!DOCTYPE svg PUBLIC "-//W3C//DTD SVG 20010904//EN"
 "http://www.w3.org/TR/2001/REC-SVG-20010904/DTD/svg10.dtd">
<svg version="1.0" xmlns="http://www.w3.org/2000/svg"
 width="474.000000pt" height="474.000000pt" viewBox="0 0 474.000000 474.000000"
 preserveAspectRatio="xMidYMid meet">

<g transform="translate(0.000000,474.000000) scale(0.100000,-0.100000)"
fill="#000000" stroke="none">
<path d="M1206 4424 c-215 -42 -411 -145 -567 -295 -151 -147 -249 -317 -312
-537 -22 -76 -22 -85 -25 -1036 -3 -1047 -3 -1035 55 -1206 139 -408 505 -700
939 -750 69 -8 367 -10 994 -7 867 3 898 4 980 24 229 56 410 161 570 329 170
179 272 397 300 644 14 117 13 1750 0 1860 -33 265 -160 517 -351 694 -155
143 -331 234 -540 276 -93 19 -136 20 -1036 19 -750 -1 -952 -4 -1007 -15z
m2029 -302 c289 -81 505 -294 587 -578 l23 -79 0 -945 c0 -1026 3 -968 -55
-1122 -29 -78 -110 -200 -179 -269 -115 -115 -291 -205 -449 -229 -44 -7 -385
-10 -982 -8 l-915 3 -73 23 c-288 88 -492 297 -574 587 l-23 80 0 935 0 935
22 79 c93 324 356 559 678 605 33 5 465 8 960 7 l900 -1 80 -23z"/>
<path d="M3329 3827 c-91 -60 -90 -181 2 -249 32 -24 105 -26 148 -3 73 37 97
153 45 215 -54 63 -133 79 -195 37z"/>
<path d="M2020 3536 c-305 -64 -571 -264 -712 -534 -94 -179 -123 -315 -115
-534 7 -205 51 -345 162 -513 144 -219 359 -375 611 -442 87 -23 118 -26 254
-26 135 0 168 3 252 26 193 51 360 149 495 290 130 136 211 282 260 465 23 84
26 117 26 252 0 136 -3 167 -26 254 -81 302 -304 567 -582 691 -139 61 -218
78 -395 81 -113 2 -186 -1 -230 -10z m400 -305 c142 -42 243 -104 343 -210
124 -131 186 -280 194 -467 7 -136 -12 -232 -66 -349 -76 -162 -185 -272 -346
-350 -124 -60 -219 -79 -359 -72 -186 8 -332 69 -463 191 -106 98 -179 217
-219 356 -27 97 -25 280 4 383 78 274 285 468 567 531 91 20 255 14 345 -13z"/>
</g>
</svg>
